<?xml version="1.0" encoding="UTF-8" standalone="no"?>
<!-- Created with Inkscape (http://www.inkscape.org/) -->

<svg
   width="66.097351mm"
   height="37.697132mm"
   viewBox="0 0 66.097351 37.697132"
   version="1.1"
   id="svg5"
   inkscape:version="1.1.1 (c3084ef, 2021-09-22)"
   sodipodi:docname="logo1.svg"
   xmlns:inkscape="http://www.inkscape.org/namespaces/inkscape"
   xmlns:sodipodi="http://sodipodi.sourceforge.net/DTD/sodipodi-0.dtd"
   xmlns:xlink="http://www.w3.org/1999/xlink"
   xmlns="http://www.w3.org/2000/svg"
   xmlns:svg="http://www.w3.org/2000/svg">
  <sodipodi:namedview
     id="namedview7"
     pagecolor="#ffffff"
     bordercolor="#666666"
     borderopacity="1.0"
     inkscape:pageshadow="2"
     inkscape:pageopacity="0.0"
     inkscape:pagecheckerboard="0"
     inkscape:document-units="mm"
     showgrid="false"
     inkscape:zoom="0.58492772"
     inkscape:cx="-5.1288388"
     inkscape:cy="105.1412"
     inkscape:window-width="1280"
     inkscape:window-height="755"
     inkscape:window-x="110"
     inkscape:window-y="23"
     inkscape:window-maximized="0"
     inkscape:current-layer="layer1" />
  <defs
     id="defs2">
    <linearGradient
       id="linearGradient23876"
       inkscape:swatch="solid">
      <stop
         style="stop-color:#000000;stop-opacity:1;"
         offset="0"
         id="stop23874" />
    </linearGradient>
    <linearGradient
       id="linearGradient23838"
       inkscape:swatch="solid">
      <stop
         style="stop-color:#000000;stop-opacity:1;"
         offset="0"
         id="stop23836" />
    </linearGradient>
    <rect
       x="515.99469"
       y="627.21619"
       width="184.15358"
       height="56.522388"
       id="rect16260" />
    <rect
       x="495.93839"
       y="583.45691"
       width="196.9167"
       height="92.988449"
       id="rect13714" />
    <rect
       x="495.93839"
       y="583.45691"
       width="215.14973"
       height="196.9167"
       id="rect12586" />
    <linearGradient
       id="linearGradient5030"
       inkscape:swatch="solid">
      <stop
         style="stop-color:#000000;stop-opacity:1;"
         offset="0"
         id="stop5028" />
    </linearGradient>
    <linearGradient
       id="linearGradient5002"
       inkscape:swatch="solid">
      <stop
         style="stop-color:#000000;stop-opacity:1;"
         offset="0"
         id="stop5000" />
    </linearGradient>
    <rect
       x="80.940697"
       y="261.99225"
       width="366.36316"
       height="328.02283"
       id="rect1733" />
    <rect
       x="91.59079"
       y="236.43204"
       width="385.53333"
       height="225.78195"
       id="rect737" />
    <linearGradient
       inkscape:collect="always"
       xlink:href="#linearGradient23876"
       id="linearGradient23878"
       x1="126.16403"
       y1="170.19228"
       x2="191.6353"
       y2="170.19228"
       gradientUnits="userSpaceOnUse"
       gradientTransform="matrix(0.99736194,0,0,1.5687929,0.4191867,-91.967019)" />
  </defs>
  <g
     inkscape:label="Layer 1"
     inkscape:groupmode="layer"
     id="layer1"
     transform="translate(-125.85099,-156.18085)">
    <text
       xml:space="preserve"
       transform="scale(0.26458333)"
       id="text735"
       style="font-size:24px;line-height:1.25;font-family:'GB18030 Bitmap';-inkscape-font-specification:'GB18030 Bitmap, Normal';font-variant-ligatures:none;white-space:pre;shape-inside:url(#rect737)" />
    <path
       id="rect11240"
       style="fill:#ffffff;stroke:url(#linearGradient23878);stroke-width:0.98818"
       d="m 136.57343,156.67494 h 44.65247 c 5.6665,0 10.22835,4.56185 10.22835,10.22835 v 16.25226 c 0,5.6665 -4.56185,10.22835 -10.22835,10.22835 h -44.65247 c -5.66651,0 -10.22835,-4.56185 -10.22835,-10.22835 v -16.25226 c 0,-5.6665 4.56184,-10.22835 10.22835,-10.22835 z" />
    <text
       xml:space="preserve"
       transform="scale(0.26458333)"
       id="text12584"
       style="font-size:24px;line-height:1.25;font-family:'GB18030 Bitmap';-inkscape-font-specification:'GB18030 Bitmap, Normal';font-variant-ligatures:none;white-space:pre;shape-inside:url(#rect12586)" />
    <g
       aria-label="&lt;/rc &gt; 

"
       transform="matrix(0.66018156,0,0,0.64083284,-195.43985,-213.18446)"
       id="text13712"
       style="font-size:24px;line-height:1.25;font-family:'GB18030 Bitmap';-inkscape-font-specification:'GB18030 Bitmap, Normal';font-variant-ligatures:none;white-space:pre;shape-inside:url(#rect13714)">
      <path
         d="m 512.4375,604.45062 -13.52344,-6.01172 v -1.45313 l 13.52344,-6.01172 v 2.10938 l -10.66406,4.6289 10.66406,4.62891 z"
         id="path39377" />
      <path
         d="m 525.65625,587.11858 -8.40234,21.79688 h -2.02735 l 8.36719,-21.79688 z"
         id="path39379" />
      <path
         d="m 536.83594,594.66546 h -0.11719 q -0.49219,-0.11719 -0.96094,-0.16406 -0.45703,-0.0586 -1.08984,-0.0586 -1.01953,0 -1.96875,0.45703 -0.94922,0.44532 -1.82813,1.16016 v 9.29297 h -2.20312 v -13.08984 h 2.20312 v 1.93359 q 1.3125,-1.05469 2.3086,-1.48828 1.00781,-0.44531 2.05078,-0.44531 0.57422,0 0.83203,0.0352 0.25781,0.0234 0.77344,0.10547 z"
         id="path39381" />
      <path
         d="m 548.61328,604.53265 q -1.10156,0.52734 -2.09766,0.82031 -0.98437,0.29297 -2.09765,0.29297 -1.41797,0 -2.60156,-0.41016 -1.1836,-0.42187 -2.02735,-1.26562 -0.85547,-0.84375 -1.32422,-2.13282 -0.46875,-1.28906 -0.46875,-3.01171 0,-3.21094 1.75782,-5.03907 1.76953,-1.82812 4.66406,-1.82812 1.125,0 2.20312,0.3164 1.08985,0.31641 1.99219,0.77344 v 2.44922 h -0.11719 q -1.00781,-0.78516 -2.08593,-1.20703 -1.06641,-0.42188 -2.08594,-0.42188 -1.875,0 -2.96485,1.26563 -1.07812,1.25391 -1.07812,3.69141 0,2.36718 1.05469,3.64453 1.0664,1.26562 2.98828,1.26562 0.66797,0 1.35937,-0.17578 0.69141,-0.17578 1.24219,-0.45703 0.48047,-0.24609 0.90234,-0.51563 0.42188,-0.28125 0.66797,-0.48046 h 0.11719 z"
         id="path39383" />
      <path
         d="m 574.38281,598.4389 -13.52344,6.01172 v -2.10938 l 10.66407,-4.62891 -10.66407,-4.6289 v -2.10938 l 13.52344,6.01172 z"
         id="path39385" />
    </g>
    <text
       xml:space="preserve"
       transform="scale(0.26458333)"
       id="text16258"
       style="font-size:24px;line-height:1.25;font-family:'GB18030 Bitmap';-inkscape-font-specification:'GB18030 Bitmap, Normal';font-variant-ligatures:none;white-space:pre;shape-inside:url(#rect16260)" />
    <g
       aria-label="raffaeleCataldo"
       id="text16464"
       style="font-size:6.35px;line-height:1.25;font-family:'GB18030 Bitmap';-inkscape-font-specification:'GB18030 Bitmap, Normal';font-variant-ligatures:none;stroke-width:0.264583">
      <path
         d="m 137.10493,183.13995 h -0.031 q -0.13022,-0.031 -0.25425,-0.0434 -0.12092,-0.0155 -0.28835,-0.0155 -0.26975,0 -0.5209,0.12092 -0.25115,0.11782 -0.48369,0.30696 v 2.45876 h -0.58291 v -3.46335 h 0.58291 v 0.51159 q 0.34726,-0.27905 0.61081,-0.39377 0.26665,-0.11782 0.54261,-0.11782 0.15192,0 0.22014,0.009 0.0682,0.006 0.20464,0.0279 z"
         id="path39388" />
      <path
         d="m 140.35124,185.96768 h -0.57981 v -0.36897 q -0.0775,0.0527 -0.21084,0.14883 -0.13022,0.093 -0.25425,0.14883 -0.14573,0.0713 -0.33486,0.11782 -0.18914,0.0496 -0.44339,0.0496 -0.46818,0 -0.79375,-0.31006 -0.32556,-0.31006 -0.32556,-0.79065 0,-0.39377 0.16743,-0.63562 0.17054,-0.24494 0.4837,-0.38447 0.31626,-0.13953 0.75964,-0.18914 0.44338,-0.0496 0.95188,-0.0744 v -0.0899 q 0,-0.19843 -0.0713,-0.32866 -0.0682,-0.13022 -0.19844,-0.20464 -0.12402,-0.0713 -0.29766,-0.0961 -0.17363,-0.0248 -0.36277,-0.0248 -0.22944,0 -0.51159,0.062 -0.28216,0.0589 -0.58291,0.17363 h -0.031 v -0.59221 q 0.17053,-0.0465 0.49299,-0.10232 0.32247,-0.0558 0.63562,-0.0558 0.36587,0 0.63562,0.062 0.27286,0.0589 0.47129,0.20464 0.19534,0.14263 0.29766,0.36897 0.10232,0.22634 0.10232,0.56121 z m -0.57981,-0.85266 v -0.96428 q -0.26665,0.0155 -0.62942,0.0465 -0.35967,0.031 -0.57051,0.0899 -0.25114,0.0713 -0.40617,0.22325 -0.15503,0.14882 -0.15503,0.41237 0,0.29766 0.17983,0.44959 0.17983,0.14883 0.5488,0.14883 0.30696,0 0.56121,-0.11782 0.25425,-0.12093 0.47129,-0.28836 z"
         id="path39390" />
      <path
         d="m 143.3433,181.70748 h -0.031 q -0.0961,-0.0279 -0.25115,-0.0558 -0.15503,-0.031 -0.27285,-0.031 -0.37517,0 -0.5457,0.16743 -0.16744,0.16433 -0.16744,0.59842 v 0.11782 h 1.0511 v 0.48989 h -1.03249 v 2.97346 h -0.58291 v -2.97346 h -0.39378 v -0.48989 h 0.39378 v -0.11472 q 0,-0.61702 0.30696,-0.94568 0.30695,-0.33177 0.88676,-0.33177 0.19534,0 0.35037,0.0186 0.15813,0.0186 0.28835,0.0434 z"
         id="path39392" />
      <path
         d="m 145.57573,181.70748 h -0.031 q -0.0961,-0.0279 -0.25115,-0.0558 -0.15503,-0.031 -0.27285,-0.031 -0.37517,0 -0.5457,0.16743 -0.16743,0.16433 -0.16743,0.59842 v 0.11782 h 1.0511 v 0.48989 h -1.0325 v 2.97346 h -0.58291 v -2.97346 h -0.39377 v -0.48989 h 0.39377 v -0.11472 q 0,-0.61702 0.30696,-0.94568 0.30696,-0.33177 0.88677,-0.33177 0.19533,0 0.35036,0.0186 0.15813,0.0186 0.28836,0.0434 z"
         id="path39394" />
      <path
         d="m 148.636,185.96768 h -0.5798 v -0.36897 q -0.0775,0.0527 -0.21084,0.14883 -0.13023,0.093 -0.25425,0.14883 -0.14573,0.0713 -0.33487,0.11782 -0.18913,0.0496 -0.44338,0.0496 -0.46819,0 -0.79375,-0.31006 -0.32556,-0.31006 -0.32556,-0.79065 0,-0.39377 0.16743,-0.63562 0.17053,-0.24494 0.48369,-0.38447 0.31626,-0.13953 0.75965,-0.18914 0.44338,-0.0496 0.95188,-0.0744 v -0.0899 q 0,-0.19843 -0.0713,-0.32866 -0.0682,-0.13022 -0.19844,-0.20464 -0.12402,-0.0713 -0.29765,-0.0961 -0.17363,-0.0248 -0.36277,-0.0248 -0.22944,0 -0.5116,0.062 -0.28215,0.0589 -0.58291,0.17363 h -0.031 v -0.59221 q 0.17053,-0.0465 0.49299,-0.10232 0.32246,-0.0558 0.63562,-0.0558 0.36587,0 0.63562,0.062 0.27285,0.0589 0.47129,0.20464 0.19534,0.14263 0.29766,0.36897 0.10231,0.22634 0.10231,0.56121 z m -0.5798,-0.85266 v -0.96428 q -0.26665,0.0155 -0.62942,0.0465 -0.35967,0.031 -0.57051,0.0899 -0.25115,0.0713 -0.40618,0.22325 -0.15503,0.14882 -0.15503,0.41237 0,0.29766 0.17984,0.44959 0.17983,0.14883 0.5488,0.14883 0.30696,0 0.56121,-0.11782 0.25424,-0.12093 0.47129,-0.28836 z"
         id="path39396" />
      <path
         d="m 152.66367,184.29647 h -2.55179 q 0,0.31936 0.0961,0.5581 0.0961,0.23565 0.26355,0.38757 0.16123,0.14883 0.38137,0.22325 0.22325,0.0744 0.4899,0.0744 0.35346,0 0.71003,-0.13953 0.35967,-0.14262 0.5116,-0.27905 h 0.031 v 0.63562 q -0.29455,0.12403 -0.60151,0.20774 -0.30696,0.0837 -0.64492,0.0837 -0.86197,0 -1.34566,-0.46509 -0.48369,-0.46819 -0.48369,-1.32705 0,-0.84956 0.46199,-1.34876 0.46509,-0.49919 1.22163,-0.49919 0.70073,0 1.079,0.40928 0.38138,0.40927 0.38138,1.16272 z m -0.56741,-0.44649 q -0.003,-0.45888 -0.23255,-0.71003 -0.22634,-0.25115 -0.69143,-0.25115 -0.46818,0 -0.74724,0.27595 -0.27595,0.27595 -0.31316,0.68523 z"
         id="path39398" />
      <path
         d="m 154.13644,185.96768 h -0.58291 v -4.82451 h 0.58291 z"
         id="path39400" />
      <path
         d="m 158.19511,184.29647 h -2.55178 q 0,0.31936 0.0961,0.5581 0.0961,0.23565 0.26355,0.38757 0.16123,0.14883 0.38137,0.22325 0.22324,0.0744 0.48989,0.0744 0.35347,0 0.71003,-0.13953 0.35967,-0.14262 0.5116,-0.27905 h 0.031 v 0.63562 q -0.29456,0.12403 -0.60152,0.20774 -0.30695,0.0837 -0.64492,0.0837 -0.86196,0 -1.34565,-0.46509 -0.48369,-0.46819 -0.48369,-1.32705 0,-0.84956 0.46198,-1.34876 0.46509,-0.49919 1.22163,-0.49919 0.70074,0 1.07901,0.40928 0.38137,0.40927 0.38137,1.16272 z m -0.56741,-0.44649 q -0.003,-0.45888 -0.23254,-0.71003 -0.22634,-0.25115 -0.69143,-0.25115 -0.46819,0 -0.74724,0.27595 -0.27595,0.27595 -0.31316,0.68523 z"
         id="path39402" />
      <path
         d="m 162.69096,185.63282 q -0.17053,0.0744 -0.31006,0.13952 -0.13642,0.0651 -0.35967,0.13643 -0.18913,0.0589 -0.41237,0.0992 -0.22015,0.0434 -0.4868,0.0434 -0.50229,0 -0.91467,-0.13953 -0.40928,-0.14263 -0.71313,-0.44338 -0.29766,-0.29456 -0.46509,-0.74724 -0.16743,-0.45579 -0.16743,-1.0573 0,-0.57051 0.16123,-1.0201 0.16123,-0.44958 0.46508,-0.75964 0.29456,-0.30076 0.71004,-0.45889 0.41858,-0.15813 0.92707,-0.15813 0.37207,0 0.74104,0.0899 0.37207,0.0899 0.82476,0.31626 v 0.72864 h -0.0465 q -0.38137,-0.31936 -0.75654,-0.46509 -0.37517,-0.14573 -0.80305,-0.14573 -0.35037,0 -0.63252,0.11472 -0.27906,0.11163 -0.4992,0.35037 -0.21394,0.23254 -0.33486,0.58911 -0.11782,0.35347 -0.11782,0.81856 0,0.48679 0.13022,0.83715 0.13333,0.35037 0.34107,0.57051 0.21704,0.22945 0.50539,0.34107 0.29146,0.10852 0.61392,0.10852 0.44338,0 0.83095,-0.15193 0.38758,-0.15193 0.72554,-0.45579 h 0.0434 z"
         id="path39404" />
      <path
         d="m 166.21013,185.96768 h -0.57981 v -0.36897 q -0.0775,0.0527 -0.21084,0.14883 -0.13023,0.093 -0.25425,0.14883 -0.14573,0.0713 -0.33486,0.11782 -0.18914,0.0496 -0.44339,0.0496 -0.46819,0 -0.79375,-0.31006 -0.32556,-0.31006 -0.32556,-0.79065 0,-0.39377 0.16743,-0.63562 0.17053,-0.24494 0.48369,-0.38447 0.31626,-0.13953 0.75965,-0.18914 0.44338,-0.0496 0.95188,-0.0744 v -0.0899 q 0,-0.19843 -0.0713,-0.32866 -0.0682,-0.13022 -0.19843,-0.20464 -0.12403,-0.0713 -0.29766,-0.0961 -0.17363,-0.0248 -0.36277,-0.0248 -0.22944,0 -0.5116,0.062 -0.28215,0.0589 -0.58291,0.17363 h -0.031 v -0.59221 q 0.17053,-0.0465 0.49299,-0.10232 0.32246,-0.0558 0.63562,-0.0558 0.36587,0 0.63562,0.062 0.27285,0.0589 0.47129,0.20464 0.19534,0.14263 0.29766,0.36897 0.10232,0.22634 0.10232,0.56121 z m -0.57981,-0.85266 v -0.96428 q -0.26665,0.0155 -0.62942,0.0465 -0.35967,0.031 -0.57051,0.0899 -0.25115,0.0713 -0.40618,0.22325 -0.15503,0.14882 -0.15503,0.41237 0,0.29766 0.17984,0.44959 0.17983,0.14883 0.5488,0.14883 0.30696,0 0.56121,-0.11782 0.25425,-0.12093 0.47129,-0.28836 z"
         id="path39406" />
      <path
         d="m 169.13708,185.93668 q -0.16433,0.0434 -0.35967,0.0713 -0.19224,0.0279 -0.34417,0.0279 -0.5302,0 -0.80615,-0.28525 -0.27595,-0.28525 -0.27595,-0.91467 v -1.84175 h -0.39377 v -0.48989 h 0.39377 v -0.99529 h 0.58291 v 0.99529 h 1.20303 v 0.48989 h -1.20303 v 1.5782 q 0,0.27285 0.0124,0.42788 0.0124,0.15193 0.0868,0.28525 0.0682,0.12403 0.18603,0.18294 0.12093,0.0558 0.36587,0.0558 0.14263,0 0.29766,-0.0403 0.15503,-0.0434 0.22324,-0.0713 h 0.031 z"
         id="path39408" />
      <path
         d="m 172.53532,185.96768 h -0.57981 v -0.36897 q -0.0775,0.0527 -0.21084,0.14883 -0.13022,0.093 -0.25425,0.14883 -0.14572,0.0713 -0.33486,0.11782 -0.18913,0.0496 -0.44338,0.0496 -0.46819,0 -0.79375,-0.31006 -0.32556,-0.31006 -0.32556,-0.79065 0,-0.39377 0.16743,-0.63562 0.17053,-0.24494 0.48369,-0.38447 0.31626,-0.13953 0.75964,-0.18914 0.44339,-0.0496 0.95188,-0.0744 v -0.0899 q 0,-0.19843 -0.0713,-0.32866 -0.0682,-0.13022 -0.19844,-0.20464 -0.12402,-0.0713 -0.29766,-0.0961 -0.17363,-0.0248 -0.36276,-0.0248 -0.22945,0 -0.5116,0.062 -0.28215,0.0589 -0.58291,0.17363 h -0.031 v -0.59221 q 0.17054,-0.0465 0.493,-0.10232 0.32246,-0.0558 0.63562,-0.0558 0.36587,0 0.63562,0.062 0.27285,0.0589 0.47129,0.20464 0.19533,0.14263 0.29765,0.36897 0.10232,0.22634 0.10232,0.56121 z m -0.57981,-0.85266 v -0.96428 q -0.26665,0.0155 -0.62942,0.0465 -0.35966,0.031 -0.5705,0.0899 -0.25115,0.0713 -0.40618,0.22325 -0.15503,0.14882 -0.15503,0.41237 0,0.29766 0.17983,0.44959 0.17984,0.14883 0.54881,0.14883 0.30696,0 0.5612,-0.11782 0.25425,-0.12093 0.47129,-0.28836 z"
         id="path39410" />
      <path
         d="m 174.25304,185.96768 h -0.58291 v -4.82451 h 0.58291 z"
         id="path39412" />
      <path
         d="m 178.22179,185.96768 h -0.58291 v -0.36277 q -0.25114,0.21704 -0.524,0.33797 -0.27285,0.12092 -0.59221,0.12092 -0.62011,0 -0.98598,-0.47749 -0.36277,-0.47749 -0.36277,-1.32395 0,-0.44028 0.12402,-0.78445 0.12712,-0.34416 0.34107,-0.58601 0.21084,-0.23564 0.48989,-0.35967 0.28215,-0.12402 0.58291,-0.12402 0.27285,0 0.48369,0.0589 0.21084,0.0558 0.44338,0.17673 v -1.50068 h 0.58291 z m -0.58291,-0.85266 v -1.98747 q -0.23564,-0.10542 -0.42168,-0.14573 -0.18603,-0.0403 -0.40617,-0.0403 -0.4899,0 -0.76275,0.34106 -0.27285,0.34107 -0.27285,0.96739 0,0.61701 0.21084,0.93947 0.21084,0.31937 0.67593,0.31937 0.24805,0 0.50229,-0.10853 0.25425,-0.11162 0.47439,-0.28525 z"
         id="path39414" />
      <path
         d="m 182.32077,184.23755 q 0,0.84646 -0.43408,1.33636 -0.43409,0.48989 -1.16272,0.48989 -0.73484,0 -1.16892,-0.48989 -0.43099,-0.4899 -0.43099,-1.33636 0,-0.84645 0.43099,-1.33635 0.43408,-0.49299 1.16892,-0.49299 0.72863,0 1.16272,0.49299 0.43408,0.4899 0.43408,1.33635 z m -0.60151,0 q 0,-0.67282 -0.26355,-0.99838 -0.26355,-0.32867 -0.73174,-0.32867 -0.47439,0 -0.73794,0.32867 -0.26045,0.32556 -0.26045,0.99838 0,0.65113 0.26355,0.98909 0.26355,0.33487 0.73484,0.33487 0.46508,0 0.72863,-0.33177 0.26666,-0.33486 0.26666,-0.99219 z"
         id="path39416" />
    </g>
  </g>
</svg>
